<svg width="451" height="564" viewBox="0 0 451 564" fill="none" xmlns="http://www.w3.org/2000/svg">
<path d="M356.994 27.6585C357.061 27.6585 359.054 22.2665 359.143 21.9466C360.157 17.7998 359.723 9.17489 355.802 6.65025C355.132 6.26149 354.391 6.01928 353.626 5.93889C352.86 5.8585 352.087 5.94168 351.354 6.18319C350.622 6.42469 349.946 6.81928 349.37 7.34205C348.793 7.86483 348.329 8.50446 348.005 9.22059C346.546 12.2593 347.571 16.2919 348.974 19.1478C350.556 22.4378 356.994 27.6471 356.994 27.6585Z" fill="#92E3A9"/>
<path d="M449.406 67.1963C446.143 63.7691 437.845 65.1857 434.113 67.0935C433.79 67.2534 429.035 70.4178 429.101 70.5206L429.168 70.5891C427.865 70.8062 426.451 71.0461 424.925 71.3431C422.107 71.9257 418.921 72.5997 415.513 73.6278C411.82 74.6312 408.19 75.8634 404.642 77.3177C400.657 78.9152 396.818 80.8726 393.17 83.1666L393.048 83.258C393.939 82.1956 396.322 79.1226 396.489 78.8713C398.717 75.25 400.944 66.9221 397.926 63.2551C397.404 62.6698 396.769 62.2023 396.062 61.8825C395.354 61.5627 394.589 61.3976 393.816 61.3976C393.043 61.3976 392.278 61.5627 391.57 61.8825C390.863 62.2023 390.228 62.6698 389.706 63.2551C387.401 65.6769 387.144 69.8237 387.612 72.9881C388.147 76.5409 392.301 83.0867 392.635 83.6122C388.981 86.0321 385.49 88.7038 382.188 91.6088C380.25 93.2995 378.356 95.0359 376.474 96.8408C377.209 95.8927 377.866 95.0473 377.944 94.9102C380.172 91.2889 382.4 82.961 379.392 79.294C378.871 78.7087 378.236 78.2413 377.528 77.9215C376.82 77.6017 376.056 77.4365 375.282 77.4365C374.509 77.4365 373.744 77.6017 373.037 77.9215C372.329 78.2413 371.694 78.7087 371.172 79.294C368.867 81.7158 368.611 85.8741 369.079 89.027C369.546 92.18 372.988 97.8804 373.912 99.3084L371.774 101.376C368.355 104.712 364.957 108.059 361.527 111.235C360.324 112.377 359.088 113.417 357.863 114.479C358.52 113.634 359.065 112.925 359.143 112.811C361.371 109.19 363.599 100.862 360.58 97.1836C360.062 96.5946 359.43 96.1227 358.725 95.798C358.019 95.4733 357.256 95.3028 356.483 95.2974C355.709 95.2921 354.943 95.4519 354.234 95.7668C353.524 96.0817 352.886 96.5447 352.36 97.1264C350.066 99.5483 349.799 103.707 350.266 106.859C350.734 110.012 353.853 115.165 354.944 116.935C353.663 117.986 352.371 119.037 351.079 119.997C350.177 120.625 349.353 121.299 348.417 121.882L345.7 123.664C343.929 124.726 342.113 125.834 340.365 126.84C339.151 127.536 337.981 128.176 336.812 128.839C338.026 127.696 340.354 125.526 340.532 125.32C342.836 122.388 344.37 118.9 344.987 115.187C345.259 114.875 345.498 114.535 345.7 114.171C346.107 113.497 346.373 112.744 346.481 111.959C346.589 111.174 346.537 110.375 346.327 109.612C346.118 108.849 345.755 108.14 345.264 107.528C344.772 106.916 344.162 106.416 343.472 106.06C340.253 104.54 335.308 106.7 331.877 109.201C332.022 106.768 331.955 105.272 331.955 105.272L331.053 105.363L331.71 103.752C332.156 102.747 332.49 101.627 332.88 100.554C333.749 98.0403 334.506 95.4472 335.219 92.8311C336.834 93.6308 342.592 96.4296 345.722 96.5438C348.852 96.6581 352.828 95.9269 354.911 93.2995C355.415 92.6975 355.792 91.9944 356.016 91.235C356.241 90.4755 356.309 89.6763 356.215 88.8885C356.122 88.1007 355.87 87.3414 355.475 86.6591C355.079 85.9769 354.55 85.3866 353.92 84.9259C350.021 82.2984 342.202 85.5085 338.95 88.1816C338.75 88.353 336.622 90.5464 335.486 91.7687C335.898 90.1922 336.322 88.6158 336.689 86.9936C337.747 82.3441 338.683 77.5919 339.641 72.8624C339.93 71.4116 340.242 69.9722 340.543 68.5214C341.111 68.8184 347.894 72.2912 351.391 72.4169C354.51 72.5311 358.497 71.8 360.58 69.1726C361.083 68.5709 361.458 67.8685 361.681 67.1102C361.905 66.3519 361.972 65.5542 361.879 64.7677C361.785 63.9813 361.534 63.2234 361.14 62.5421C360.745 61.8608 360.217 61.2711 359.589 60.8104C355.691 58.1715 347.872 61.3816 344.619 64.0662C344.374 64.2604 341.278 67.4133 340.599 68.2587C341.256 65.0829 341.957 61.9185 342.759 58.8227C343.823 54.6472 345.155 50.5485 346.747 46.5536C347.014 46.6907 354.076 50.3463 357.662 50.4719C360.77 50.5976 364.768 49.855 366.851 47.2276C367.353 46.6251 367.727 45.9222 367.95 45.1634C368.172 44.4046 368.239 43.6067 368.144 42.8202C368.05 42.0337 367.797 41.276 367.402 40.5951C367.007 39.9143 366.478 39.3252 365.848 38.8654C361.95 36.2265 354.142 39.4366 350.89 42.1212C350.634 42.3268 347.359 45.7196 346.802 46.3822C346.903 46.1537 346.97 45.9024 347.07 45.674C348.762 41.686 350.801 37.8626 353.162 34.2502C354.443 32.2511 355.769 30.4004 357.105 28.6412C358.353 29.4637 364.089 33.1421 367.308 33.6333C370.526 34.1246 374.436 33.8047 376.786 31.44C377.35 30.8977 377.798 30.2408 378.102 29.5112C378.405 28.7815 378.557 27.9951 378.547 27.202C378.538 26.4088 378.367 25.6265 378.047 24.9046C377.726 24.1827 377.263 23.5373 376.686 23.0093C373.099 19.9477 364.991 22.2667 361.471 24.5629C361.282 24.6771 359.466 26.1736 358.13 27.2703C358.742 26.4935 359.355 25.671 359.956 24.9284C362.184 22.1411 364.412 19.7306 366.439 17.6173C367.553 16.4749 368.666 15.3325 369.635 14.3843C371.273 14.5329 377.855 15.0469 380.874 13.9845C383.892 12.9221 387.289 10.7744 388.303 7.55295C388.56 6.80564 388.664 6.0115 388.606 5.22106C388.548 4.43061 388.33 3.66116 387.967 2.96166C387.603 2.26216 387.102 1.64792 386.494 1.15803C385.887 0.668126 385.186 0.313288 384.438 0.116095C379.871 -0.900617 373.712 4.99403 371.618 8.6839C371.44 9.00376 369.179 14.3386 369.257 14.3958H369.357C368.377 15.3097 367.341 16.315 366.227 17.4231C364.178 19.5022 361.895 21.8669 359.544 24.62C357.01 27.553 354.645 30.635 352.461 33.8504C350 37.4559 347.856 41.2789 346.056 45.2741L345.989 45.4226C346.168 44.0289 346.513 40.122 346.502 39.8136C346.413 35.5411 343.784 27.3389 339.307 25.968C338.56 25.7684 337.78 25.7302 337.018 25.8558C336.256 25.9815 335.528 26.2682 334.88 26.6979C334.231 27.1276 333.677 27.6908 333.253 28.3517C332.828 29.0127 332.542 29.7571 332.412 30.5375C331.8 33.8504 333.816 37.4603 335.909 39.8364C338.26 42.5096 345.254 45.5483 345.811 45.8567C344.067 49.9376 342.597 54.1361 341.412 58.4228C340.699 60.9246 340.064 63.4607 339.451 66.0196C339.563 64.8087 339.652 63.7349 339.641 63.5749C339.552 59.3025 336.923 51.1002 332.446 49.7294C331.699 49.5316 330.921 49.4948 330.161 49.6213C329.4 49.7478 328.673 50.0349 328.026 50.4644C327.379 50.8939 326.826 51.4565 326.402 52.1165C325.978 52.7765 325.692 53.5197 325.562 54.2989C324.939 57.6117 326.966 61.2216 329.048 63.5978C331.131 65.9739 337.079 68.7613 338.649 69.481C338.427 70.4634 338.193 71.4345 337.97 72.4169C336.912 77.1349 335.887 81.8529 334.729 86.4338C334.328 88.056 333.871 89.6325 333.426 91.2089C333.515 90.1465 333.582 89.2326 333.582 89.0956C333.493 84.8231 330.864 76.6208 326.386 75.25C325.64 75.0522 324.862 75.0154 324.101 75.1419C323.341 75.2684 322.614 75.5555 321.967 75.985C321.32 76.4145 320.767 76.9771 320.343 77.6371C319.919 78.2972 319.633 79.0403 319.503 79.8195C318.879 83.1438 320.895 86.7537 322.989 89.1298C325.083 91.506 330.441 94.0192 332.301 94.8417C331.8 96.4524 331.287 98.0518 330.719 99.5825C330.318 100.622 329.995 101.65 329.527 102.667L328.247 105.614C327.255 105.786 326.108 106.014 324.827 106.311C324.493 102.004 322.923 96.7494 319.726 95.1958C319.014 94.8822 318.247 94.7242 317.472 94.732C316.698 94.7398 315.934 94.9131 315.228 95.241C314.523 95.5689 313.892 96.0441 313.375 96.6363C312.859 97.2284 312.469 97.9245 312.23 98.6801C311.116 101.867 312.598 105.751 314.313 108.413C314.564 108.817 314.847 109.199 315.159 109.555C309.685 111.845 304.763 115.33 300.736 119.768C289.185 133.02 290.054 153.148 290.054 153.148C290.054 153.148 306.438 152.006 318.077 141.725C321.653 139.988 326.275 137.681 331.566 134.768C333.548 133.694 335.642 132.483 337.781 131.238C338.349 131.957 342.949 137.806 346.012 139.394C348.796 140.845 352.694 141.885 355.679 140.4C356.379 140.069 357.003 139.593 357.514 139.002C358.025 138.412 358.411 137.719 358.648 136.967C358.884 136.216 358.966 135.422 358.889 134.637C358.811 133.851 358.575 133.09 358.197 132.403C355.735 128.336 347.326 127.902 343.283 128.976C343.049 129.044 340.532 130.004 338.95 130.632C339.819 130.118 340.677 129.627 341.568 129.079C343.339 128.016 345.076 126.908 346.947 125.72L349.632 123.881C350.534 123.287 351.425 122.544 352.327 121.87C354.399 120.271 356.426 118.535 358.431 116.752C359.344 118.34 362.652 123.927 365.191 125.789C367.731 127.651 371.451 129.296 374.603 128.29C375.347 128.072 376.038 127.698 376.633 127.19C377.228 126.683 377.714 126.054 378.058 125.343C378.403 124.633 378.6 123.857 378.636 123.064C378.672 122.271 378.546 121.48 378.267 120.739C376.441 116.341 368.187 114.593 364.044 115.027C363.777 115.027 360.836 115.679 359.221 116.056C360.413 114.97 361.616 113.885 362.797 112.754C366.138 109.464 369.479 106.037 372.821 102.633C373.846 101.582 374.881 100.554 375.906 99.5254C376.218 100.085 380.016 106.825 382.867 108.916C385.396 110.778 389.127 112.411 392.268 111.406C393.011 111.189 393.703 110.816 394.298 110.31C394.893 109.804 395.379 109.176 395.725 108.467C396.071 107.757 396.269 106.982 396.306 106.19C396.344 105.398 396.22 104.607 395.943 103.866C394.106 99.4569 385.919 97.7205 381.709 98.1546C381.397 98.1546 377.165 99.0913 376.14 99.3769C378.368 97.0922 380.684 94.8074 383.012 92.7397C386.151 89.8554 389.47 87.1842 392.947 84.7431C393.092 85.0059 397.024 92.0543 399.942 94.1905C402.47 96.0526 406.202 97.6976 409.342 96.6809C410.086 96.4639 410.777 96.0905 411.373 95.5844C411.968 95.0784 412.454 94.4507 412.8 93.7415C413.145 93.0323 413.343 92.257 413.381 91.465C413.419 90.673 413.295 89.8816 413.018 89.1413C411.18 84.7317 402.938 82.9953 398.784 83.4294C398.461 83.4294 393.905 84.4461 393.081 84.686C393.293 84.5375 393.482 84.3775 393.682 84.2405C397.234 81.8909 400.984 79.8722 404.887 78.2087C407.026 77.2606 409.12 76.4723 411.18 75.7641C411.782 77.1463 414.588 83.4637 417.017 85.6913C419.445 87.9189 422.864 89.8724 426.094 89.2326C426.857 89.1003 427.586 88.8061 428.232 88.369C428.878 87.9318 429.428 87.3613 429.848 86.6937C430.267 86.0261 430.546 85.2763 430.667 84.492C430.787 83.7076 430.748 82.9061 430.549 82.1385C429.19 77.569 421.182 74.8959 417.017 74.8273C416.783 74.8273 414.477 75.0329 412.795 75.2271C413.731 74.9187 414.689 74.576 415.591 74.3018C418.932 73.2508 422.129 72.5083 424.936 71.8686C426.528 71.5144 427.976 71.2288 429.391 70.9889C430.672 72.0285 435.896 76.1867 438.981 77.0092C442.066 77.8318 446.053 77.9574 448.637 75.8669C449.298 75.39 449.849 74.7716 450.253 74.0545C450.657 73.3374 450.904 72.5387 450.977 71.7139C451.05 70.8891 450.948 70.0578 450.676 69.2777C450.405 68.4977 449.972 67.7874 449.406 67.1963ZM330.34 132.186C327.912 133.454 325.618 134.608 323.502 135.613C327.085 130.282 329.547 124.244 330.73 117.883C331.365 118.043 332.011 118.18 332.657 118.306C332.847 121.905 335.642 128.302 335.999 129.124C334.061 130.221 332.156 131.295 330.34 132.186Z" fill="#92E3A9"/>
<path d="M416.515 71.1033C419.589 68.2131 423.878 60.822 421.928 56.4352C421.581 55.7274 421.093 55.1016 420.497 54.5975C419.901 54.0934 419.209 53.7221 418.465 53.5072C417.721 53.2923 416.942 53.2385 416.177 53.3493C415.412 53.46 414.677 53.7329 414.02 54.1505C411.18 55.8641 409.855 59.7938 409.498 62.9696C409.075 66.6938 411.637 74.679 411.637 74.679C411.637 74.679 416.259 71.3546 416.515 71.1033Z" fill="#92E3A9"/>
<path d="M281.634 35.5527C281.634 35.5527 257.854 60.2965 257.732 90.9578C257.609 121.619 281.121 146.557 281.121 146.557C281.121 146.557 304.923 121.813 305.024 91.1635C305.124 60.5136 281.634 35.5527 281.634 35.5527Z" fill="#92E3A9"/>
<path d="M229.363 105.671C229.363 105.671 229.218 125.823 241.236 138.629C253.254 151.435 272.879 152.052 272.879 152.052C272.879 152.052 273.035 131.9 261.017 119.094C248.999 106.288 229.363 105.671 229.363 105.671Z" fill="#92E3A9"/>
<g opacity="0.5">
<path d="M356.994 27.6585C357.061 27.6585 359.054 22.2665 359.143 21.9466C360.157 17.7998 359.723 9.17489 355.802 6.65025C355.132 6.26149 354.391 6.01928 353.626 5.93889C352.86 5.8585 352.087 5.94168 351.354 6.18319C350.622 6.42469 349.946 6.81928 349.37 7.34205C348.793 7.86483 348.329 8.50446 348.005 9.22059C346.546 12.2593 347.571 16.2919 348.974 19.1478C350.556 22.4378 356.994 27.6471 356.994 27.6585Z" fill="white"/>
<path d="M449.406 67.1963C446.143 63.7691 437.845 65.1857 434.113 67.0935C433.79 67.2534 429.035 70.4178 429.101 70.5206L429.168 70.5891C427.865 70.8062 426.451 71.0461 424.925 71.3431C422.107 71.9257 418.921 72.5997 415.513 73.6278C411.82 74.6312 408.19 75.8634 404.642 77.3177C400.657 78.9152 396.818 80.8726 393.17 83.1666L393.048 83.258C393.939 82.1956 396.322 79.1226 396.489 78.8713C398.717 75.25 400.944 66.9221 397.926 63.2551C397.404 62.6698 396.769 62.2023 396.062 61.8825C395.354 61.5627 394.589 61.3976 393.816 61.3976C393.043 61.3976 392.278 61.5627 391.57 61.8825C390.863 62.2023 390.228 62.6698 389.706 63.2551C387.401 65.6769 387.144 69.8237 387.612 72.9881C388.147 76.5409 392.301 83.0867 392.635 83.6122C388.981 86.0321 385.49 88.7038 382.188 91.6088C380.25 93.2995 378.356 95.0359 376.474 96.8408C377.209 95.8927 377.866 95.0473 377.944 94.9102C380.172 91.2889 382.4 82.961 379.392 79.294C378.871 78.7087 378.236 78.2413 377.528 77.9215C376.82 77.6017 376.056 77.4365 375.282 77.4365C374.509 77.4365 373.744 77.6017 373.037 77.9215C372.329 78.2413 371.694 78.7087 371.172 79.294C368.867 81.7158 368.611 85.8741 369.079 89.027C369.546 92.18 372.988 97.8804 373.912 99.3084L371.774 101.376C368.355 104.712 364.957 108.059 361.527 111.235C360.324 112.377 359.088 113.417 357.863 114.479C358.52 113.634 359.065 112.925 359.143 112.811C361.371 109.19 363.599 100.862 360.58 97.1836C360.062 96.5946 359.43 96.1227 358.725 95.798C358.019 95.4733 357.256 95.3028 356.483 95.2974C355.709 95.2921 354.943 95.4519 354.234 95.7668C353.524 96.0817 352.886 96.5447 352.36 97.1264C350.066 99.5483 349.799 103.707 350.266 106.859C350.734 110.012 353.853 115.165 354.944 116.935C353.663 117.986 352.371 119.037 351.079 119.997C350.177 120.625 349.353 121.299 348.417 121.882L345.7 123.664C343.929 124.726 342.113 125.834 340.365 126.84C339.151 127.536 337.981 128.176 336.812 128.839C338.026 127.696 340.354 125.526 340.532 125.32C342.836 122.388 344.37 118.9 344.987 115.187C345.259 114.875 345.498 114.535 345.7 114.171C346.107 113.497 346.373 112.744 346.481 111.959C346.589 111.174 346.537 110.375 346.327 109.612C346.118 108.849 345.755 108.14 345.264 107.528C344.772 106.916 344.162 106.416 343.472 106.06C340.253 104.54 335.308 106.7 331.877 109.201C332.022 106.768 331.955 105.272 331.955 105.272L331.053 105.363L331.71 103.752C332.156 102.747 332.49 101.627 332.88 100.554C333.749 98.0403 334.506 95.4472 335.219 92.8311C336.834 93.6308 342.592 96.4296 345.722 96.5438C348.852 96.6581 352.828 95.9269 354.911 93.2995C355.415 92.6975 355.792 91.9944 356.016 91.235C356.241 90.4755 356.309 89.6763 356.215 88.8885C356.122 88.1007 355.87 87.3414 355.475 86.6591C355.079 85.9769 354.55 85.3866 353.92 84.9259C350.021 82.2984 342.202 85.5085 338.95 88.1816C338.75 88.353 336.622 90.5464 335.486 91.7687C335.898 90.1922 336.322 88.6158 336.689 86.9936C337.747 82.3441 338.683 77.5919 339.641 72.8624C339.93 71.4116 340.242 69.9722 340.543 68.5214C341.111 68.8184 347.894 72.2912 351.391 72.4169C354.51 72.5311 358.497 71.8 360.58 69.1726C361.083 68.5709 361.458 67.8685 361.681 67.1102C361.905 66.3519 361.972 65.5542 361.879 64.7677C361.785 63.9813 361.534 63.2234 361.14 62.5421C360.745 61.8608 360.217 61.2711 359.589 60.8104C355.691 58.1715 347.872 61.3816 344.619 64.0662C344.374 64.2604 341.278 67.4133 340.599 68.2587C341.256 65.0829 341.957 61.9185 342.759 58.8227C343.823 54.6472 345.155 50.5485 346.747 46.5536C347.014 46.6907 354.076 50.3463 357.662 50.4719C360.77 50.5976 364.768 49.855 366.851 47.2276C367.353 46.6251 367.727 45.9222 367.95 45.1634C368.172 44.4046 368.239 43.6067 368.144 42.8202C368.05 42.0337 367.797 41.276 367.402 40.5951C367.007 39.9143 366.478 39.3252 365.848 38.8654C361.95 36.2265 354.142 39.4366 350.89 42.1212C350.634 42.3268 347.359 45.7196 346.802 46.3822C346.903 46.1537 346.97 45.9024 347.07 45.674C348.762 41.686 350.801 37.8626 353.162 34.2502C354.443 32.2511 355.769 30.4004 357.105 28.6412C358.353 29.4637 364.089 33.1421 367.308 33.6333C370.526 34.1246 374.436 33.8047 376.786 31.44C377.35 30.8977 377.798 30.2408 378.102 29.5112C378.405 28.7815 378.557 27.9951 378.547 27.202C378.538 26.4088 378.367 25.6265 378.047 24.9046C377.726 24.1827 377.263 23.5373 376.686 23.0093C373.099 19.9477 364.991 22.2667 361.471 24.5629C361.282 24.6771 359.466 26.1736 358.13 27.2703C358.742 26.4935 359.355 25.671 359.956 24.9284C362.184 22.1411 364.412 19.7306 366.439 17.6173C367.553 16.4749 368.666 15.3325 369.635 14.3843C371.273 14.5329 377.855 15.0469 380.874 13.9845C383.892 12.9221 387.289 10.7744 388.303 7.55295C388.56 6.80564 388.664 6.0115 388.606 5.22106C388.548 4.43061 388.33 3.66116 387.967 2.96166C387.603 2.26216 387.102 1.64792 386.494 1.15803C385.887 0.668126 385.186 0.313288 384.438 0.116095C379.871 -0.900617 373.712 4.99403 371.618 8.6839C371.44 9.00376 369.179 14.3386 369.257 14.3958H369.357C368.377 15.3097 367.341 16.315 366.227 17.4231C364.178 19.5022 361.895 21.8669 359.544 24.62C357.01 27.553 354.645 30.635 352.461 33.8504C350 37.4559 347.856 41.2789 346.056 45.2741L345.989 45.4226C346.168 44.0289 346.513 40.122 346.502 39.8136C346.413 35.5411 343.784 27.3389 339.307 25.968C338.56 25.7684 337.78 25.7302 337.018 25.8558C336.256 25.9815 335.528 26.2682 334.88 26.6979C334.231 27.1276 333.677 27.6908 333.253 28.3517C332.828 29.0127 332.542 29.7571 332.412 30.5375C331.8 33.8504 333.816 37.4603 335.909 39.8364C338.26 42.5096 345.254 45.5483 345.811 45.8567C344.067 49.9376 342.597 54.1361 341.412 58.4228C340.699 60.9246 340.064 63.4607 339.451 66.0196C339.563 64.8087 339.652 63.7349 339.641 63.5749C339.552 59.3025 336.923 51.1002 332.446 49.7294C331.699 49.5316 330.921 49.4948 330.161 49.6213C329.4 49.7478 328.673 50.0349 328.026 50.4644C327.379 50.8939 326.826 51.4565 326.402 52.1165C325.978 52.7765 325.692 53.5197 325.562 54.2989C324.939 57.6117 326.966 61.2216 329.048 63.5978C331.131 65.9739 337.079 68.7613 338.649 69.481C338.427 70.4634 338.193 71.4345 337.97 72.4169C336.912 77.1349 335.887 81.8529 334.729 86.4338C334.328 88.056 333.871 89.6325 333.426 91.2089C333.515 90.1465 333.582 89.2326 333.582 89.0956C333.493 84.8231 330.864 76.6208 326.386 75.25C325.64 75.0522 324.862 75.0154 324.101 75.1419C323.341 75.2684 322.614 75.5555 321.967 75.985C321.32 76.4145 320.767 76.9771 320.343 77.6371C319.919 78.2972 319.633 79.0403 319.503 79.8195C318.879 83.1438 320.895 86.7537 322.989 89.1298C325.083 91.506 330.441 94.0192 332.301 94.8417C331.8 96.4524 331.287 98.0518 330.719 99.5825C330.318 100.622 329.995 101.65 329.527 102.667L328.247 105.614C327.255 105.786 326.108 106.014 324.827 106.311C324.493 102.004 322.923 96.7494 319.726 95.1958C319.014 94.8822 318.247 94.7242 317.472 94.732C316.698 94.7398 315.934 94.9131 315.228 95.241C314.523 95.5689 313.892 96.0441 313.375 96.6363C312.859 97.2284 312.469 97.9245 312.23 98.6801C311.116 101.867 312.598 105.751 314.313 108.413C314.564 108.817 314.847 109.199 315.159 109.555C309.685 111.845 304.763 115.33 300.736 119.768C289.185 133.02 290.054 153.148 290.054 153.148C290.054 153.148 306.438 152.006 318.077 141.725C321.653 139.988 326.275 137.681 331.566 134.768C333.548 133.694 335.642 132.483 337.781 131.238C338.349 131.957 342.949 137.806 346.012 139.394C348.796 140.845 352.694 141.885 355.679 140.4C356.379 140.069 357.003 139.593 357.514 139.002C358.025 138.412 358.411 137.719 358.648 136.967C358.884 136.216 358.966 135.422 358.889 134.637C358.811 133.851 358.575 133.09 358.197 132.403C355.735 128.336 347.326 127.902 343.283 128.976C343.049 129.044 340.532 130.004 338.95 130.632C339.819 130.118 340.677 129.627 341.568 129.079C343.339 128.016 345.076 126.908 346.947 125.72L349.632 123.881C350.534 123.287 351.425 122.544 352.327 121.87C354.399 120.271 356.426 118.535 358.431 116.752C359.344 118.34 362.652 123.927 365.191 125.789C367.731 127.651 371.451 129.296 374.603 128.29C375.347 128.072 376.038 127.698 376.633 127.19C377.228 126.683 377.714 126.054 378.058 125.343C378.403 124.633 378.6 123.857 378.636 123.064C378.672 122.271 378.546 121.48 378.267 120.739C376.441 116.341 368.187 114.593 364.044 115.027C363.777 115.027 360.836 115.679 359.221 116.056C360.413 114.97 361.616 113.885 362.797 112.754C366.138 109.464 369.479 106.037 372.821 102.633C373.846 101.582 374.881 100.554 375.906 99.5254C376.218 100.085 380.016 106.825 382.867 108.916C385.396 110.778 389.127 112.411 392.268 111.406C393.011 111.189 393.703 110.816 394.298 110.31C394.893 109.804 395.379 109.176 395.725 108.467C396.071 107.757 396.269 106.982 396.306 106.19C396.344 105.398 396.22 104.607 395.943 103.866C394.106 99.4569 385.919 97.7205 381.709 98.1546C381.397 98.1546 377.165 99.0913 376.14 99.3769C378.368 97.0922 380.684 94.8074 383.012 92.7397C386.151 89.8554 389.47 87.1842 392.947 84.7431C393.092 85.0059 397.024 92.0543 399.942 94.1905C402.47 96.0526 406.202 97.6976 409.342 96.6809C410.086 96.4639 410.777 96.0905 411.373 95.5844C411.968 95.0784 412.454 94.4507 412.8 93.7415C413.145 93.0323 413.343 92.257 413.381 91.465C413.419 90.673 413.295 89.8816 413.018 89.1413C411.18 84.7317 402.938 82.9953 398.784 83.4294C398.461 83.4294 393.905 84.4461 393.081 84.686C393.293 84.5375 393.482 84.3775 393.682 84.2405C397.234 81.8909 400.984 79.8722 404.887 78.2087C407.026 77.2606 409.12 76.4723 411.18 75.7641C411.782 77.1463 414.588 83.4637 417.017 85.6913C419.445 87.9189 422.864 89.8724 426.094 89.2326C426.857 89.1003 427.586 88.8061 428.232 88.369C428.878 87.9318 429.428 87.3613 429.848 86.6937C430.267 86.0261 430.546 85.2763 430.667 84.492C430.787 83.7076 430.748 82.9061 430.549 82.1385C429.19 77.569 421.182 74.8959 417.017 74.8273C416.783 74.8273 414.477 75.0329 412.795 75.2271C413.731 74.9187 414.689 74.576 415.591 74.3018C418.932 73.2508 422.129 72.5083 424.936 71.8686C426.528 71.5144 427.976 71.2288 429.391 70.9889C430.672 72.0285 435.896 76.1867 438.981 77.0092C442.066 77.8318 446.053 77.9574 448.637 75.8669C449.298 75.39 449.849 74.7716 450.253 74.0545C450.657 73.3374 450.904 72.5387 450.977 71.7139C451.05 70.8891 450.948 70.0578 450.676 69.2777C450.405 68.4977 449.972 67.7874 449.406 67.1963ZM330.34 132.186C327.912 133.454 325.618 134.608 323.502 135.613C327.085 130.282 329.547 124.244 330.73 117.883C331.365 118.043 332.011 118.18 332.657 118.306C332.847 121.905 335.642 128.302 335.999 129.124C334.061 130.221 332.156 131.295 330.34 132.186Z" fill="white"/>
<path d="M416.515 71.1033C419.589 68.2131 423.878 60.822 421.928 56.4352C421.581 55.7274 421.093 55.1016 420.497 54.5975C419.901 54.0934 419.209 53.7221 418.465 53.5072C417.721 53.2923 416.942 53.2385 416.177 53.3493C415.412 53.46 414.677 53.7329 414.02 54.1505C411.18 55.8641 409.855 59.7938 409.498 62.9696C409.075 66.6938 411.637 74.679 411.637 74.679C411.637 74.679 416.259 71.3546 416.515 71.1033Z" fill="white"/>
<path d="M281.634 35.5527C281.634 35.5527 257.854 60.2965 257.732 90.9578C257.609 121.619 281.121 146.557 281.121 146.557C281.121 146.557 304.923 121.813 305.024 91.1635C305.124 60.5136 281.634 35.5527 281.634 35.5527Z" fill="white"/>
<path d="M229.363 105.671C229.363 105.671 229.218 125.823 241.236 138.629C253.254 151.435 272.879 152.052 272.879 152.052C272.879 152.052 273.035 131.9 261.017 119.094C248.999 106.288 229.363 105.671 229.363 105.671Z" fill="white"/>
</g>
<path d="M296.581 118.74L295.824 117.735L281.834 128.999L281.946 104.221L301.382 86.5826L300.557 85.6344L281.946 102.519L282.068 75.3073L295.155 63.678L294.353 62.7184L282.068 73.6166L282.235 35.5527H280.999L280.754 91.6318L265.361 68.5445L264.336 69.2527L280.654 93.711L280.754 93.6424L280.654 116.947L262.187 99.914L261.363 100.862L280.642 118.649V118.638L280.531 146.557L281.767 146.569L281.834 130.61L296.581 118.74Z" fill="white"/>
<path d="M332.401 105.557L331.488 104.712L310.905 128.313L312.776 113.063L311.551 112.914L309.457 129.958H309.468L301.192 139.451L299.633 125.366L298.408 125.503L300.09 140.72L289.642 152.692L290.566 153.537L296.503 146.74L307.229 147.402L307.296 146.134L297.55 145.529L306.449 135.328L321.385 135.339V134.071L307.552 134.048L317.342 122.83L327.266 122.956L327.289 121.688L318.445 121.573L332.401 105.557Z" fill="white"/>
<path d="M268.602 134.117L267.377 133.945L266.063 143.873L256.807 134.002L257.943 118.729L256.707 118.638L255.66 132.78L245.469 121.928L246.337 111.783L245.101 111.681L244.333 120.717L229.809 105.238L228.918 106.117L250.325 128.93L235.645 125.869L235.4 127.114L251.817 130.53V130.507L260.427 139.692L246.616 140.228L246.66 141.496L261.574 140.914L272.434 152.486L273.325 151.606L267.166 145.038L268.602 134.117Z" fill="white"/>
<path d="M277.635 437.074L419.857 382.343L420.881 370.679L279.707 425.399L277.635 437.074Z" fill="#92E3A9" stroke="#2E353A" stroke-width="1.13593" stroke-linecap="round" stroke-linejoin="round"/>
<path d="M253.688 243.602C251.19 243.582 248.774 242.678 246.85 241.043C244.432 238.997 242.844 236.102 242.394 232.92C242.338 232.352 242.497 231.783 242.838 231.332C243.179 230.88 243.676 230.58 244.226 230.493C244.777 230.407 245.339 230.541 245.796 230.867C246.253 231.193 246.57 231.687 246.683 232.246C246.973 234.333 248.009 236.234 249.59 237.581C250.277 238.189 251.085 238.637 251.957 238.893C252.83 239.15 253.746 239.209 254.643 239.067C255.54 238.924 256.397 238.584 257.153 238.069C257.909 237.554 258.547 236.877 259.024 236.085C259.352 235.618 259.843 235.3 260.395 235.197C260.946 235.093 261.516 235.213 261.983 235.53C262.451 235.848 262.781 236.338 262.904 236.899C263.027 237.46 262.934 238.049 262.643 238.541C261.831 239.849 260.756 240.964 259.49 241.813C258.225 242.662 256.797 243.225 255.303 243.464C254.77 243.556 254.23 243.602 253.688 243.602Z" fill="#2E353A"/>
<path d="M233.161 250.101C227.67 250.101 222.758 245.623 221.834 239.432C221.789 239.144 221.801 238.849 221.868 238.566C221.934 238.282 222.055 238.015 222.223 237.779C222.39 237.544 222.602 237.344 222.844 237.193C223.087 237.041 223.357 236.94 223.638 236.896C224.206 236.819 224.781 236.969 225.244 237.316C225.706 237.663 226.021 238.179 226.122 238.758C226.768 243.11 230.343 246.172 234.074 245.612C234.97 245.462 235.825 245.119 236.581 244.605C237.338 244.091 237.979 243.418 238.463 242.63C238.791 242.164 239.282 241.846 239.834 241.742C240.386 241.639 240.955 241.758 241.422 242.076C241.89 242.393 242.22 242.884 242.343 243.445C242.466 244.006 242.373 244.594 242.083 245.086C241.27 246.394 240.195 247.509 238.929 248.358C237.664 249.207 236.237 249.77 234.743 250.01C234.219 250.085 233.69 250.115 233.161 250.101Z" fill="#2E353A"/>
<path d="M214.382 257.493C211.885 257.475 209.47 256.576 207.544 254.945C205.128 252.898 203.541 250.003 203.088 246.823C203.032 246.255 203.191 245.686 203.532 245.234C203.873 244.783 204.37 244.483 204.92 244.396C205.471 244.31 206.033 244.443 206.49 244.769C206.947 245.096 207.264 245.589 207.377 246.149C207.667 248.235 208.703 250.137 210.284 251.484C210.978 252.081 211.787 252.521 212.658 252.777C213.529 253.033 214.443 253.098 215.34 252.969C216.234 252.819 217.087 252.476 217.842 251.962C218.597 251.447 219.236 250.774 219.717 249.987C220.082 249.625 220.555 249.402 221.06 249.353C221.565 249.305 222.071 249.435 222.494 249.721C222.917 250.007 223.233 250.433 223.388 250.928C223.543 251.423 223.529 251.958 223.348 252.443C222.532 253.75 221.455 254.865 220.188 255.714C218.921 256.563 217.492 257.126 215.997 257.367C215.463 257.455 214.923 257.497 214.382 257.493Z" fill="#2E353A"/>
<path d="M193.855 263.524C188.364 263.524 183.452 259.035 182.528 252.855C182.47 252.56 182.472 252.256 182.532 251.962C182.592 251.668 182.709 251.389 182.877 251.143C183.044 250.897 183.259 250.688 183.508 250.528C183.756 250.369 184.034 250.264 184.323 250.217C184.613 250.171 184.908 250.185 185.192 250.259C185.476 250.333 185.743 250.465 185.975 250.648C186.208 250.83 186.403 251.059 186.547 251.32C186.692 251.582 186.783 251.871 186.816 252.169C187.473 256.522 191.037 259.583 194.768 259.023C195.663 258.874 196.516 258.532 197.272 258.02C198.029 257.508 198.671 256.838 199.157 256.053C199.303 255.788 199.502 255.556 199.739 255.372C199.977 255.189 200.248 255.057 200.538 254.986C200.827 254.914 201.127 254.904 201.42 254.957C201.713 255.009 201.992 255.123 202.241 255.291C202.489 255.459 202.701 255.677 202.864 255.932C203.027 256.188 203.137 256.474 203.187 256.775C203.237 257.076 203.227 257.384 203.156 257.68C203.086 257.977 202.956 258.255 202.777 258.498C201.962 259.805 200.887 260.921 199.622 261.772C198.357 262.622 196.93 263.188 195.437 263.433C194.912 263.503 194.384 263.533 193.855 263.524Z" fill="#2E353A"/>
<path d="M172.838 272.092C167.358 272.092 162.446 267.614 161.51 261.423C161.544 260.904 161.749 260.412 162.092 260.03C162.435 259.647 162.895 259.395 163.396 259.317C163.897 259.238 164.409 259.337 164.848 259.598C165.287 259.858 165.626 260.264 165.809 260.749C166.455 265.101 170.031 268.151 173.762 267.603C174.657 267.451 175.511 267.107 176.267 266.593C177.023 266.079 177.665 265.407 178.15 264.621C178.478 264.155 178.97 263.837 179.521 263.733C180.073 263.63 180.642 263.749 181.11 264.067C181.578 264.384 181.908 264.875 182.031 265.436C182.154 265.997 182.06 266.585 181.77 267.077C180.956 268.384 179.88 269.498 178.615 270.347C177.35 271.195 175.924 271.759 174.43 272.001C173.902 272.07 173.37 272.101 172.838 272.092Z" fill="#2E353A"/>
<path d="M152.488 279.735C149.991 279.719 147.575 278.819 145.65 277.187C143.234 275.14 141.647 272.245 141.194 269.065C141.138 268.497 141.297 267.928 141.638 267.476C141.979 267.025 142.476 266.725 143.026 266.638C143.577 266.552 144.138 266.685 144.596 267.012C145.053 267.338 145.37 267.832 145.483 268.391C145.773 270.478 146.809 272.379 148.39 273.726C149.077 274.334 149.885 274.782 150.757 275.038C151.63 275.295 152.546 275.354 153.443 275.211C154.34 275.069 155.197 274.729 155.953 274.214C156.709 273.699 157.347 273.022 157.823 272.229C158.188 271.868 158.661 271.644 159.166 271.596C159.671 271.547 160.177 271.677 160.6 271.963C161.023 272.249 161.338 272.675 161.494 273.17C161.649 273.665 161.635 274.2 161.454 274.686C160.638 275.993 159.561 277.107 158.294 277.956C157.027 278.805 155.598 279.368 154.103 279.609C153.569 279.697 153.029 279.739 152.488 279.735Z" fill="#2E353A"/>
<path d="M281.534 429.957L399.229 385.484" stroke="#2E353A" stroke-width="0.567964" stroke-linecap="round" stroke-linejoin="round"/>
<path d="M278.437 433.67L353.797 405.076" stroke="#2E353A" stroke-width="0.567964" stroke-linecap="round" stroke-linejoin="round"/>
<path d="M135.926 274.605V288.394L277.635 437.074L279.707 425.399L135.926 274.605Z" fill="#92E3A9" stroke="#2E353A" stroke-width="1.13593" stroke-linecap="round" stroke-linejoin="round"/>
<path d="M138.031 285.424L222.179 371.718" stroke="#2E353A" stroke-width="0.567964" stroke-linecap="round" stroke-linejoin="round"/>
<path d="M177.783 322.482L265.528 414.603" stroke="#2E353A" stroke-width="0.567964" stroke-linecap="round" stroke-linejoin="round"/>
<path d="M135.926 274.605L279.707 425.398L420.881 370.679L274.561 226.854L135.926 274.605Z" fill="white" stroke="#2E353A" stroke-width="1.13593" stroke-linecap="round" stroke-linejoin="round"/>
<path d="M134.166 272.229L1 144.752L137.407 101.125L273.514 224.581L134.166 272.229Z" fill="#92E3A9" stroke="#2E353A" stroke-width="1.13593" stroke-linecap="round" stroke-linejoin="round"/>
<path d="M21.3826 145.597L60.3657 133.145" stroke="#2E353A" stroke-width="1.21052" stroke-linecap="round" stroke-linejoin="round"/>
<path d="M27.141 150.19L66.1241 137.738" stroke="#2E353A" stroke-width="1.21052" stroke-linecap="round" stroke-linejoin="round"/>
<path d="M159.628 275.68C159.204 275.682 158.789 275.555 158.436 275.314C157.966 274.98 157.639 274.474 157.523 273.9C157.407 273.326 157.511 272.728 157.812 272.23C158.925 270.457 159.354 268.323 159.015 266.244C158.826 264.668 158.184 263.185 157.17 261.984C156.157 260.784 154.818 259.92 153.324 259.504C152.784 259.352 152.323 258.993 152.035 258.501C151.747 258.009 151.656 257.423 151.779 256.863C151.902 256.304 152.231 255.815 152.698 255.498C153.164 255.181 153.731 255.061 154.282 255.163C156.626 255.779 158.738 257.098 160.347 258.952C161.956 260.806 162.989 263.11 163.314 265.57C163.823 268.749 163.156 272.008 161.443 274.709C161.238 275.008 160.967 275.252 160.651 275.421C160.335 275.59 159.984 275.678 159.628 275.68Z" fill="#2E353A"/>
<path d="M179.955 268.037C179.531 268.04 179.116 267.912 178.763 267.672C178.524 267.511 178.319 267.304 178.159 267.062C177.999 266.819 177.887 266.547 177.83 266.26C177.773 265.974 177.772 265.678 177.827 265.391C177.882 265.104 177.992 264.831 178.15 264.587C179.258 262.813 179.687 260.68 179.353 258.601C179.164 257.025 178.522 255.542 177.508 254.342C176.495 253.142 175.156 252.278 173.662 251.861C173.37 251.812 173.092 251.702 172.843 251.538C172.594 251.374 172.381 251.16 172.216 250.909C172.051 250.658 171.937 250.374 171.882 250.077C171.828 249.779 171.833 249.473 171.897 249.177C171.962 248.881 172.084 248.602 172.258 248.357C172.431 248.111 172.651 247.905 172.905 247.75C173.159 247.595 173.441 247.494 173.734 247.455C174.027 247.415 174.324 247.438 174.608 247.52C176.953 248.136 179.064 249.456 180.674 251.31C182.283 253.164 183.316 255.468 183.641 257.927C184.15 261.106 183.483 264.366 181.77 267.066C181.565 267.365 181.294 267.609 180.978 267.778C180.662 267.947 180.311 268.036 179.955 268.037Z" fill="#2E353A"/>
<path d="M260.828 239.546C260.447 239.526 260.077 239.407 259.754 239.198C259.43 238.989 259.165 238.699 258.983 238.355C258.8 238.011 258.707 237.625 258.713 237.233C258.718 236.841 258.821 236.458 259.012 236.119C260.127 234.351 260.556 232.22 260.215 230.144C260.028 228.566 259.387 227.081 258.373 225.878C257.36 224.676 256.019 223.811 254.524 223.393C254.246 223.331 253.983 223.213 253.749 223.046C253.516 222.878 253.318 222.665 253.165 222.419C253.013 222.172 252.91 221.897 252.862 221.609C252.814 221.322 252.823 221.027 252.887 220.743C253.024 220.173 253.371 219.679 253.854 219.364C254.337 219.05 254.92 218.938 255.482 219.052C257.826 219.668 259.938 220.988 261.547 222.841C263.156 224.695 264.189 226.999 264.515 229.459C265.025 232.64 264.353 235.901 262.632 238.598C262.431 238.896 262.161 239.138 261.846 239.304C261.531 239.469 261.182 239.552 260.828 239.546Z" fill="#2E353A"/>
<path d="M240.267 246.023C239.843 246.026 239.428 245.899 239.075 245.658C238.837 245.497 238.631 245.29 238.471 245.048C238.311 244.805 238.199 244.533 238.142 244.246C238.086 243.96 238.084 243.664 238.139 243.377C238.194 243.09 238.304 242.817 238.463 242.573C239.572 240.799 240 238.666 239.666 236.587C239.477 235.011 238.835 233.528 237.821 232.328C236.807 231.128 235.468 230.264 233.974 229.847C233.683 229.798 233.404 229.688 233.156 229.524C232.907 229.36 232.694 229.146 232.528 228.895C232.363 228.644 232.25 228.361 232.195 228.063C232.14 227.765 232.145 227.459 232.21 227.163C232.274 226.868 232.397 226.588 232.57 226.343C232.743 226.098 232.964 225.891 233.217 225.736C233.471 225.581 233.753 225.48 234.046 225.441C234.339 225.401 234.637 225.424 234.921 225.506C237.267 226.12 239.38 227.438 240.989 229.293C242.599 231.147 243.631 233.453 243.954 235.913C244.463 239.092 243.795 242.352 242.083 245.052C241.878 245.351 241.606 245.595 241.29 245.764C240.974 245.933 240.623 246.022 240.267 246.023Z" fill="#2E353A"/>
<path d="M221.488 253.449C221.063 253.447 220.649 253.316 220.297 253.072C219.827 252.738 219.5 252.232 219.384 251.657C219.268 251.083 219.371 250.485 219.673 249.987C220.792 248.217 221.225 246.082 220.887 244.001C220.698 242.425 220.056 240.942 219.042 239.742C218.029 238.542 216.689 237.678 215.195 237.261C214.904 237.212 214.625 237.102 214.377 236.938C214.128 236.774 213.915 236.56 213.75 236.309C213.584 236.058 213.471 235.775 213.416 235.477C213.361 235.179 213.366 234.873 213.431 234.577C213.495 234.282 213.618 234.003 213.791 233.757C213.965 233.512 214.185 233.305 214.439 233.15C214.692 232.995 214.974 232.894 215.267 232.855C215.56 232.815 215.858 232.838 216.142 232.92C218.486 233.536 220.598 234.856 222.207 236.71C223.816 238.564 224.85 240.868 225.175 243.327C225.684 246.506 225.017 249.766 223.304 252.466C223.1 252.767 222.829 253.014 222.513 253.185C222.197 253.356 221.846 253.446 221.488 253.449Z" fill="#2E353A"/>
<path d="M200.961 259.469C200.538 259.466 200.125 259.339 199.769 259.103C199.531 258.943 199.325 258.736 199.165 258.493C199.005 258.251 198.893 257.979 198.836 257.692C198.779 257.405 198.778 257.11 198.833 256.823C198.888 256.535 198.998 256.262 199.157 256.019C200.264 254.244 200.693 252.112 200.36 250.033C200.171 248.457 199.528 246.974 198.515 245.774C197.501 244.573 196.162 243.71 194.668 243.293C194.334 243.293 194.005 243.216 193.704 243.068C193.403 242.92 193.138 242.705 192.929 242.437C192.72 242.17 192.573 241.858 192.497 241.525C192.422 241.191 192.42 240.845 192.493 240.511C192.566 240.176 192.711 239.863 192.917 239.594C193.124 239.325 193.387 239.108 193.686 238.957C193.986 238.806 194.315 238.726 194.649 238.723C194.983 238.721 195.313 238.795 195.615 238.94C197.961 239.552 200.075 240.871 201.685 242.725C203.295 244.58 204.327 246.886 204.648 249.347C205.158 252.527 204.49 255.786 202.777 258.486C202.573 258.788 202.302 259.034 201.986 259.205C201.67 259.376 201.318 259.466 200.961 259.469Z" fill="#2E353A"/>
<path d="M393.705 367.195L399.185 365.127" stroke="#2E353A" stroke-width="0.567964" stroke-linecap="round" stroke-linejoin="round"/>
<path d="M285.521 408.183L388.726 369.091" stroke="#2E353A" stroke-width="0.567964" stroke-linecap="round" stroke-linejoin="round"/>
<path d="M288.417 390.511L386.91 353.201" stroke="#2E353A" stroke-width="0.567964" stroke-linecap="round" stroke-linejoin="round"/>
<path d="M273.247 396.257L281.868 392.99" stroke="#2E353A" stroke-width="0.567964" stroke-linecap="round" stroke-linejoin="round"/>
<path d="M260.973 384.33L374.647 341.274" stroke="#2E353A" stroke-width="0.567964" stroke-linecap="round" stroke-linejoin="round"/>
<path d="M248.71 372.415L362.373 329.359" stroke="#2E353A" stroke-width="0.567964" stroke-linecap="round" stroke-linejoin="round"/>
<path d="M345.332 319.238L350.099 317.433" stroke="#2E353A" stroke-width="0.567964" stroke-linecap="round" stroke-linejoin="round"/>
<path d="M236.436 360.489L338.516 321.82" stroke="#2E353A" stroke-width="0.567964" stroke-linecap="round" stroke-linejoin="round"/>
<path d="M224.162 348.563L337.836 305.507" stroke="#2E353A" stroke-width="0.567964" stroke-linecap="round" stroke-linejoin="round"/>
<path d="M211.887 336.648L325.562 293.592" stroke="#2E353A" stroke-width="0.567964" stroke-linecap="round" stroke-linejoin="round"/>
<path d="M199.624 324.722L313.288 281.666" stroke="#2E353A" stroke-width="0.567964" stroke-linecap="round" stroke-linejoin="round"/>
<path d="M187.35 312.795L301.014 269.739" stroke="#2E353A" stroke-width="0.567964" stroke-linecap="round" stroke-linejoin="round"/>
<path d="M284.719 259.343L288.751 257.812" stroke="#2E353A" stroke-width="0.567964" stroke-linecap="round" stroke-linejoin="round"/>
<path d="M175.076 300.869L281.222 260.669" stroke="#2E353A" stroke-width="0.567964" stroke-linecap="round" stroke-linejoin="round"/>
<path d="M196.74 276.091L276.477 245.898" stroke="#2E353A" stroke-width="0.567964" stroke-linecap="round" stroke-linejoin="round"/>
<path d="M162.813 288.954L184.766 280.637" stroke="#2E353A" stroke-width="0.567964" stroke-linecap="round" stroke-linejoin="round"/>
<g style="mix-blend-mode:multiply">
<path d="M202.242 319.786C213.747 321.329 212.734 301.131 209.816 294.357C207.687 296.86 206.1 299.797 205.161 302.976C204.222 306.155 203.952 309.501 204.369 312.795C204.49 314.333 205.014 315.809 205.884 317.068C206.325 317.69 206.935 318.166 207.639 318.434C208.342 318.702 209.107 318.752 209.838 318.575C210.885 318.12 211.772 317.347 212.378 316.359C214.494 313.48 215.897 309.916 218.125 307.277C221.21 309.414 232.17 313.069 230.588 305.21C229.719 300.869 231.825 301.36 234.086 303.485C235.021 304.353 236.491 303.885 237.65 303.359L248.788 298.333C250.205 297.591 251.74 297.115 253.321 296.927C258.667 296.653 262.165 301.748 267.411 298.15C269.638 296.642 270.15 292.552 272.98 290.999C274.996 289.856 277.368 289.788 279.662 289.468C287.548 288.394 291.58 284.121 298.864 280.26" stroke="#92E3A9" stroke-width="1.13593" stroke-linecap="round" stroke-linejoin="round"/>
</g>
<g style="mix-blend-mode:multiply">
<path d="M211.175 332.41C215.485 333.164 219.172 329.131 222.981 327.84C227.848 326.172 229.964 324.139 234.642 322.071C240.824 319.352 248.086 318.096 246.794 308.511C245.914 311.938 245.814 315.708 245.134 319.295C250.147 321.843 251.494 317.467 252.007 313.583C253.689 313.54 255.351 313.196 256.919 312.567C256.919 313.286 257.141 314.097 257.13 314.783C259.536 315.777 260.472 315.103 260.973 312.921C263.635 312.407 264.581 309.848 266.831 309.219C267.399 315.628 268.992 321.237 268.625 327.794C264.359 328.937 263.69 321.386 264.771 318.256C265.885 314.943 269.092 313.172 270.273 309.711C270.518 310.133 270.329 310.624 270.462 311.081C275.831 307.791 282.714 308.682 288.038 304.833C289.709 303.622 290.901 301.2 292.672 300.355C296.525 298.527 297.673 300.674 300.546 296.368" stroke="#92E3A9" stroke-width="1.13593" stroke-linecap="round" stroke-linejoin="round"/>
</g>
<g style="mix-blend-mode:multiply">
<path d="M249.979 370.051C257.72 367.766 261.118 348.037 258.89 340.795C256.284 332.033 252.697 341.64 251.862 346.347C251.194 350.116 250.124 360.055 253.555 362.922C261.162 369.251 265.807 356.239 266.742 350.356C267.076 354.035 264.916 358.57 265.796 362.534C271.955 363.277 275.007 358.022 274.617 352.595C275.382 353.346 275.9 354.322 276.099 355.389C276.299 356.455 276.17 357.559 275.731 358.547C281.612 358.124 280.643 347.946 281.3 343.845C280.966 346.712 281.222 350.071 283.104 352.39C284.674 354.309 287.671 355.154 289.642 353.669C291.613 352.184 291.224 348.277 288.829 347.763V372.495C288.904 373.211 288.765 373.932 288.428 374.563C287.637 375.706 285.699 375.466 284.797 374.369C284.002 373.173 283.629 371.734 283.739 370.291C283.628 362.191 286.067 351.099 292.182 345.57C292.495 346.358 292.599 347.217 292.482 348.06C293.067 347.826 293.596 347.465 294.033 347.002C294.469 346.538 294.803 345.984 295.011 345.376C295.412 347.192 296.459 349.477 298.252 349.157C298.847 348.997 299.392 348.682 299.833 348.243C302.774 345.753 305.959 344.107 307.931 340.566C308.209 341.457 308.499 342.348 308.788 343.251C309.256 341.526 310.86 340.395 312.43 339.618C314.826 338.463 317.417 337.792 320.06 337.642C322.288 337.527 324.716 337.767 326.743 336.785C327.641 336.293 328.501 335.732 329.316 335.106C331.624 333.546 334.296 332.646 337.057 332.501" stroke="#92E3A9" stroke-width="1.13593" stroke-linecap="round" stroke-linejoin="round"/>
</g>
<path d="M158.213 153.103C158.213 153.103 175.978 130.141 181.993 121.927C188.008 113.714 192.363 107.396 192.363 107.396C192.363 107.396 195.57 109.99 194.59 112.937C193.61 115.884 172.481 145.483 167.781 153C163.081 160.517 163.738 170.033 164.083 173.311C164.428 176.59 155.106 165.875 158.213 153.103Z" fill="white" stroke="#2E353A" stroke-width="1.27267" stroke-linecap="round" stroke-linejoin="round"/>
<path d="M192.363 107.396C192.363 107.396 203.423 91.6202 211.631 78.483C219.84 65.3457 231.825 45.6169 234.676 42.9894C237.527 40.362 238.218 47.2162 237.293 51.8085C236.369 56.4009 226.556 69.2183 219.929 79.7281C213.302 90.238 209.203 97.8005 203.501 104.7C197.798 111.6 198.132 111.932 194.59 112.937C191.048 113.942 191.739 110.344 192.363 107.396Z" fill="#2E353A" stroke="#2E353A" stroke-width="1.27267" stroke-linecap="round" stroke-linejoin="round"/>
<path d="M154.393 155.41C155.618 146.9 158.392 131.181 164.729 126.234C171.067 121.288 190.246 125.092 191.839 125.389C193.432 125.686 218.671 131.421 226.367 136.276C234.063 141.131 239.231 155.159 241.203 163.281C243.174 171.404 247.407 185.158 248.042 186.129C248.042 186.129 254.446 189.019 257.954 188.676C261.463 188.334 266.13 171.609 275.953 161.728C285.777 151.846 290.878 150.498 301.727 151.446C312.575 152.395 353.786 163.853 357.963 168.068C362.139 172.283 364.746 181.776 363.844 188.631C362.941 195.485 364.256 203.025 364.256 204.327C364.256 205.629 368.121 209.867 367.185 213.466C366.249 217.064 365.67 224.89 362.808 225.929C359.945 226.969 338.883 226.42 323.245 224.238C307.608 222.057 285.855 212.381 271.454 205.618C257.052 198.855 250.024 195.942 239.499 196.022C228.973 196.102 208.568 196.559 189.723 192.104C170.877 187.648 158.069 179.537 154.527 175.985C150.985 172.432 153.179 163.933 154.393 155.41ZM267.243 195.531C272.4 203.356 293.184 211.067 304.367 214.254C315.549 217.441 342.369 223.153 349.364 219.189C356.359 215.225 360.034 191.635 359.388 183.456C358.742 175.276 355.479 170.73 355.479 170.73C341.701 161.991 298.586 152.794 289.675 156.461C280.765 160.128 272.244 171.952 269.115 181.457C265.985 190.961 267.243 195.531 267.243 195.531ZM177.215 182.085C190.981 190.493 212.689 192.96 221.299 193.234C229.909 193.509 238.173 188.871 238.429 178.726C238.686 168.582 233.473 151.606 231.524 146.74C229.575 141.873 223.181 138.949 223.181 138.949C214.549 134.756 178.763 125.515 172.704 126.543C166.645 127.571 161.343 137.007 160.107 150.795C158.87 164.584 163.448 173.677 177.215 182.085Z" fill="#2E353A" stroke="#2E353A" stroke-width="1.27267" stroke-linecap="round" stroke-linejoin="round"/>
<path d="M363.298 204.041C363.298 204.041 366.84 209.582 369.368 205.64C371.896 201.699 404.509 164.184 404.509 164.184C404.509 164.184 405.778 163.841 405.478 166.468C405.177 169.096 371.039 216.104 369.769 218.401C368.499 220.697 363.086 221.394 361.816 220.423C360.547 219.452 363.298 204.041 363.298 204.041Z" fill="white" stroke="#2E353A" stroke-width="1.27267" stroke-linecap="round" stroke-linejoin="round"/>
<path d="M402.281 165.497C404.144 162.094 405.825 158.59 407.315 154.999C410.768 147.128 412.884 131.74 413.441 115.701C413.998 99.6621 414.555 90.1804 417.44 93.1049C420.325 96.0294 417.852 111.76 417.317 124.177C416.783 136.595 413.018 149.07 412.105 155.627C411.414 160.573 407.716 168.41 405.166 168.422C402.615 168.433 402.938 167.782 402.281 165.497Z" fill="#2E353A" stroke="#2E353A" stroke-width="1.27267" stroke-linecap="round" stroke-linejoin="round"/>
<path d="M191.839 370.554L205.862 386.832L185.011 382.012L36.6528 288.92L43.4916 277.462L191.839 370.554Z" fill="white" stroke="#2E353A" stroke-width="1.4364" stroke-linecap="round" stroke-linejoin="round"/>
<g style="mix-blend-mode:multiply" opacity="0.5">
<path d="M191.839 370.554L205.862 386.832L185.011 382.012L36.6528 288.92L43.4916 277.462L191.839 370.554Z" fill="#92E3A9"/>
<path d="M191.839 370.554L205.862 386.832L185.011 382.012L36.6528 288.92L43.4916 277.462L191.839 370.554Z" stroke="#2E353A" stroke-width="1.4364" stroke-linecap="round" stroke-linejoin="round"/>
</g>
<path d="M41.9385 280.07L38.2124 286.316L186.567 379.414L190.293 373.168L41.9385 280.07Z" stroke="#2E353A" stroke-width="0.718198" stroke-linecap="round" stroke-linejoin="round"/>
<path d="M191.872 370.588L185.045 382.023L205.862 386.832L191.872 370.588Z" fill="white" stroke="#2E353A" stroke-width="1.4364" stroke-linecap="round" stroke-linejoin="round"/>
<path d="M195.448 384.422L205.862 386.832L198.867 378.71L195.448 384.422Z" fill="#92E3A9" stroke="#2E353A" stroke-width="1.4364" stroke-linecap="round" stroke-linejoin="round"/>
<path d="M23.4654 272.766C23.0155 273.518 22.7145 274.353 22.5796 275.224C22.4447 276.094 22.4786 276.984 22.6793 277.841C22.88 278.699 23.2436 279.507 23.7493 280.22C24.2549 280.933 24.8927 281.537 25.6262 281.997L36.6528 288.92L43.4916 277.496L32.4649 270.573C30.9874 269.642 29.2102 269.35 27.5231 269.762C25.836 270.173 24.3768 271.253 23.4654 272.766Z" fill="white" stroke="#2E353A" stroke-width="1.4364" stroke-linecap="round" stroke-linejoin="round"/>
<path d="M23.4654 272.766C23.0155 273.518 22.7145 274.353 22.5796 275.224C22.4447 276.094 22.4786 276.984 22.6793 277.841C22.88 278.699 23.2436 279.507 23.7493 280.22C24.2549 280.933 24.8927 281.537 25.6262 281.997L30.9056 285.31L37.7444 273.886L32.4649 270.573C30.9874 269.642 29.2102 269.35 27.5231 269.762C25.836 270.173 24.3768 271.253 23.4654 272.766Z" fill="#2E353A" stroke="#2E353A" stroke-width="1.4364" stroke-linecap="round" stroke-linejoin="round"/>
<path d="M322.845 218.218L318.935 215.396C318.33 214.961 317.638 214.671 316.909 214.549C316.18 214.426 315.433 214.474 314.725 214.688C310.593 215.922 302.796 219.063 300.568 221.542C297.673 224.604 296.759 230.144 298.151 232.749C299.544 235.354 305.258 238.678 305.258 238.678L329.193 223.736L322.845 218.218Z" fill="white" stroke="#2E353A" stroke-width="0.9473" stroke-miterlimit="10"/>
<g style="mix-blend-mode:multiply" opacity="0.5">
<path d="M322.845 218.218L318.935 215.396C318.33 214.961 317.638 214.671 316.909 214.549C316.18 214.426 315.433 214.474 314.725 214.688C310.593 215.922 302.796 219.063 300.568 221.542C297.673 224.604 296.759 230.144 298.151 232.749C299.544 235.354 305.258 238.678 305.258 238.678L329.193 223.736L322.845 218.218Z" fill="#92E3A9"/>
<path d="M322.845 218.218L318.935 215.396C318.33 214.961 317.638 214.671 316.909 214.549C316.18 214.426 315.433 214.474 314.725 214.688C310.593 215.922 302.796 219.063 300.568 221.542C297.673 224.604 296.759 230.144 298.151 232.749C299.544 235.354 305.258 238.678 305.258 238.678L329.193 223.736L322.845 218.218Z" stroke="#2E353A" stroke-width="0.9473" stroke-miterlimit="10"/>
</g>
<path d="M325.284 217.065L306.349 225.941C306.349 225.941 299.945 229.653 301.972 241.02L412.851 324.756C412.851 324.756 416.705 327.635 423.666 325.202C430.627 322.768 437.756 314.349 439.259 307.232C440.763 300.115 435.918 297.876 435.016 297.088C434.113 296.3 329.026 217.91 329.026 217.91C327.915 217.183 326.589 216.883 325.284 217.065Z" fill="white" stroke="#2E353A" stroke-width="0.9473" stroke-miterlimit="10"/>
<g style="mix-blend-mode:multiply" opacity="0.5">
<path d="M325.284 217.065L306.349 225.941C306.349 225.941 299.945 229.653 301.972 241.02L412.851 324.756C412.851 324.756 416.705 327.635 423.666 325.202C430.627 322.768 437.756 314.349 439.259 307.232C440.763 300.115 435.918 297.876 435.016 297.088C434.113 296.3 329.026 217.91 329.026 217.91C327.915 217.183 326.589 216.883 325.284 217.065Z" fill="#92E3A9"/>
<path d="M325.284 217.065L306.349 225.941C306.349 225.941 299.945 229.653 301.972 241.02L412.851 324.756C412.851 324.756 416.705 327.635 423.666 325.202C430.627 322.768 437.756 314.349 439.259 307.232C440.763 300.115 435.918 297.876 435.016 297.088C434.113 296.3 329.026 217.91 329.026 217.91C327.915 217.183 326.589 216.883 325.284 217.065Z" stroke="#2E353A" stroke-width="0.9473" stroke-miterlimit="10"/>
</g>
<path d="M431.797 319.295C424.813 325.978 416.359 328.331 412.862 324.539C409.365 320.746 412.249 312.235 419.233 305.541C426.217 298.847 434.67 296.505 438.168 300.298C441.665 304.09 438.769 312.601 431.797 319.295Z" fill="white" stroke="#2E353A" stroke-width="0.9473" stroke-miterlimit="10"/>
<g style="mix-blend-mode:multiply">
<path d="M431.797 319.295C424.813 325.978 416.359 328.331 412.862 324.539C409.365 320.746 412.249 312.235 419.233 305.541C426.217 298.847 434.67 296.505 438.168 300.298C441.665 304.09 438.769 312.601 431.797 319.295Z" fill="#92E3A9"/>
<path d="M431.797 319.295C424.813 325.978 416.359 328.331 412.862 324.539C409.365 320.746 412.249 312.235 419.233 305.541C426.217 298.847 434.67 296.505 438.168 300.298C441.665 304.09 438.769 312.601 431.797 319.295Z" stroke="#2E353A" stroke-width="0.9473" stroke-miterlimit="10"/>
</g>
<path d="M329.015 217.91C327.907 217.185 326.586 216.886 325.284 217.064L306.349 225.94C306.349 225.94 299.945 229.653 301.972 241.02L378.646 298.927C378.1 296.253 378.201 292.347 381.13 287.709C383.847 283.379 396.055 276.399 402.648 272.858C371.44 249.565 329.015 217.91 329.015 217.91Z" fill="#2E353A" stroke="#2E353A" stroke-width="1.27267" stroke-linecap="round" stroke-linejoin="round"/>
<path d="M416.994 305.336L376.496 275.234C375.89 274.784 375.404 274.185 375.084 273.492C374.763 272.799 374.617 272.034 374.661 271.268C374.704 270.502 374.935 269.759 375.331 269.109C375.728 268.458 376.278 267.921 376.931 267.546L383.201 264.039C383.937 263.63 384.771 263.442 385.606 263.497C386.441 263.551 387.244 263.846 387.924 264.347L430.739 296.151" fill="white"/>
<path d="M416.994 305.336L376.496 275.234C375.89 274.784 375.404 274.185 375.084 273.492C374.763 272.799 374.617 272.034 374.661 271.268C374.704 270.502 374.935 269.759 375.331 269.109C375.728 268.458 376.278 267.921 376.931 267.546L383.201 264.039C383.937 263.63 384.771 263.442 385.606 263.497C386.441 263.551 387.244 263.846 387.924 264.347L430.739 296.151" stroke="#2E353A" stroke-width="0.9473" stroke-miterlimit="10"/>
<g style="mix-blend-mode:multiply" opacity="0.5">
<path d="M416.994 305.336L376.496 275.234C375.89 274.784 375.404 274.185 375.084 273.492C374.763 272.799 374.617 272.034 374.661 271.268C374.704 270.502 374.935 269.759 375.331 269.109C375.728 268.458 376.278 267.921 376.931 267.546L383.201 264.039C383.937 263.63 384.771 263.442 385.606 263.497C386.441 263.551 387.244 263.846 387.924 264.347L430.739 296.151" fill="#92E3A9"/>
<path d="M416.994 305.336L376.496 275.234C375.89 274.784 375.404 274.185 375.084 273.492C374.763 272.799 374.617 272.034 374.661 271.268C374.704 270.502 374.935 269.759 375.331 269.109C375.728 268.458 376.278 267.921 376.931 267.546L383.201 264.039C383.937 263.63 384.771 263.442 385.606 263.497C386.441 263.551 387.244 263.846 387.924 264.347L430.739 296.151" stroke="#2E353A" stroke-width="0.9473" stroke-miterlimit="10"/>
</g>
<path d="M46.508 556V533.6H57.004C59.692 533.6 61.74 534.133 63.148 535.2C64.556 536.245 65.26 537.653 65.26 539.424C65.26 540.619 64.9827 541.643 64.428 542.496C63.8733 543.328 63.1267 543.979 62.188 544.448C61.2707 544.896 60.268 545.12 59.18 545.12L59.756 543.968C61.0147 543.968 62.1453 544.203 63.148 544.672C64.1507 545.12 64.94 545.781 65.516 546.656C66.1133 547.531 66.412 548.619 66.412 549.92C66.412 551.84 65.676 553.333 64.204 554.4C62.732 555.467 60.5453 556 57.644 556H46.508ZM50.668 552.736H57.388C58.9453 552.736 60.14 552.48 60.972 551.968C61.804 551.456 62.22 550.635 62.22 549.504C62.22 548.395 61.804 547.584 60.972 547.072C60.14 546.539 58.9453 546.272 57.388 546.272H50.348V543.04H56.556C58.0067 543.04 59.116 542.784 59.884 542.272C60.6733 541.76 61.068 540.992 61.068 539.968C61.068 538.923 60.6733 538.144 59.884 537.632C59.116 537.12 58.0067 536.864 56.556 536.864H50.668V552.736ZM78.4998 556.224C76.6011 556.224 74.9371 555.851 73.5078 555.104C72.0998 554.336 71.0011 553.291 70.2118 551.968C69.4438 550.645 69.0598 549.141 69.0598 547.456C69.0598 545.749 69.4331 544.245 70.1798 542.944C70.9478 541.621 71.9931 540.587 73.3158 539.84C74.6598 539.093 76.1851 538.72 77.8918 538.72C79.5558 538.72 81.0384 539.083 82.3398 539.808C83.6411 540.533 84.6651 541.557 85.4118 542.88C86.1584 544.203 86.5318 545.76 86.5318 547.552C86.5318 547.723 86.5211 547.915 86.4998 548.128C86.4998 548.341 86.4891 548.544 86.4678 548.736H72.2278V546.08H84.3558L82.7878 546.912C82.8091 545.931 82.6064 545.067 82.1798 544.32C81.7531 543.573 81.1664 542.987 80.4198 542.56C79.6944 542.133 78.8518 541.92 77.8918 541.92C76.9104 541.92 76.0464 542.133 75.2998 542.56C74.5744 542.987 73.9984 543.584 73.5718 544.352C73.1664 545.099 72.9638 545.984 72.9638 547.008V547.648C72.9638 548.672 73.1984 549.579 73.6678 550.368C74.1371 551.157 74.7984 551.765 75.6518 552.192C76.5051 552.619 77.4864 552.832 78.5958 552.832C79.5558 552.832 80.4198 552.683 81.1878 552.384C81.9558 552.085 82.6384 551.616 83.2358 550.976L85.3798 553.44C84.6118 554.336 83.6411 555.029 82.4678 555.52C81.3158 555.989 79.9931 556.224 78.4998 556.224ZM90.374 556V532.256H94.374V556H90.374ZM106.856 556.224C105.405 556.224 104.125 555.957 103.016 555.424C101.907 554.869 101.043 554.037 100.424 552.928C99.8053 551.797 99.496 550.379 99.496 548.672V538.912H103.496V548.128C103.496 549.664 103.837 550.816 104.52 551.584C105.224 552.331 106.216 552.704 107.496 552.704C108.435 552.704 109.245 552.512 109.928 552.128C110.632 551.744 111.176 551.168 111.56 550.4C111.965 549.632 112.168 548.683 112.168 547.552V538.912H116.168V556H112.36V551.392L113.032 552.8C112.456 553.909 111.613 554.763 110.504 555.36C109.395 555.936 108.179 556.224 106.856 556.224ZM142.973 538.72C144.339 538.72 145.544 538.987 146.589 539.52C147.656 540.053 148.488 540.875 149.085 541.984C149.683 543.072 149.981 544.48 149.981 546.208V556H145.981V546.72C145.981 545.205 145.651 544.075 144.989 543.328C144.328 542.581 143.379 542.208 142.141 542.208C141.267 542.208 140.488 542.4 139.805 542.784C139.144 543.168 138.621 543.733 138.237 544.48C137.875 545.227 137.693 546.176 137.693 547.328V556H133.693V546.72C133.693 545.205 133.363 544.075 132.701 543.328C132.04 542.581 131.091 542.208 129.853 542.208C128.979 542.208 128.2 542.4 127.517 542.784C126.856 543.168 126.333 543.733 125.949 544.48C125.587 545.227 125.405 546.176 125.405 547.328V556H121.405V538.912H125.213V543.456L124.541 542.112C125.117 541.003 125.949 540.16 127.037 539.584C128.147 539.008 129.405 538.72 130.813 538.72C132.413 538.72 133.8 539.115 134.973 539.904C136.168 540.693 136.957 541.888 137.341 543.488L135.773 542.944C136.328 541.664 137.245 540.64 138.525 539.872C139.805 539.104 141.288 538.72 142.973 538.72ZM174.465 556V552.544L174.241 551.808V545.76C174.241 544.587 173.889 543.68 173.185 543.04C172.481 542.379 171.414 542.048 169.985 542.048C169.025 542.048 168.075 542.197 167.137 542.496C166.219 542.795 165.441 543.211 164.801 543.744L163.233 540.832C164.15 540.128 165.238 539.605 166.497 539.264C167.777 538.901 169.099 538.72 170.465 538.72C172.939 538.72 174.849 539.317 176.193 540.512C177.558 541.685 178.241 543.509 178.241 545.984V556H174.465ZM169.089 556.224C167.809 556.224 166.689 556.011 165.729 555.584C164.769 555.136 164.022 554.528 163.489 553.76C162.977 552.971 162.721 552.085 162.721 551.104C162.721 550.144 162.945 549.28 163.393 548.512C163.862 547.744 164.619 547.136 165.665 546.688C166.71 546.24 168.097 546.016 169.825 546.016H174.785V548.672H170.113C168.747 548.672 167.83 548.896 167.361 549.344C166.891 549.771 166.657 550.304 166.657 550.944C166.657 551.669 166.945 552.245 167.521 552.672C168.097 553.099 168.897 553.312 169.921 553.312C170.902 553.312 171.777 553.088 172.545 552.64C173.334 552.192 173.899 551.531 174.241 550.656L174.913 553.056C174.529 554.059 173.835 554.837 172.833 555.392C171.851 555.947 170.603 556.224 169.089 556.224ZM190.637 556.224C188.995 556.224 187.512 555.861 186.189 555.136C184.888 554.389 183.864 553.365 183.117 552.064C182.371 550.763 181.997 549.227 181.997 547.456C181.997 545.685 182.371 544.149 183.117 542.848C183.864 541.547 184.888 540.533 186.189 539.808C187.512 539.083 188.995 538.72 190.637 538.72C192.067 538.72 193.347 539.04 194.477 539.68C195.608 540.299 196.504 541.248 197.165 542.528C197.827 543.808 198.157 545.451 198.157 547.456C198.157 549.44 197.837 551.083 197.197 552.384C196.557 553.664 195.672 554.624 194.541 555.264C193.411 555.904 192.109 556.224 190.637 556.224ZM191.117 552.8C192.077 552.8 192.931 552.587 193.677 552.16C194.445 551.733 195.053 551.115 195.501 550.304C195.971 549.493 196.205 548.544 196.205 547.456C196.205 546.347 195.971 545.397 195.501 544.608C195.053 543.797 194.445 543.179 193.677 542.752C192.931 542.325 192.077 542.112 191.117 542.112C190.157 542.112 189.293 542.325 188.525 542.752C187.779 543.179 187.171 543.797 186.701 544.608C186.253 545.397 186.029 546.347 186.029 547.456C186.029 548.544 186.253 549.493 186.701 550.304C187.171 551.115 187.779 551.733 188.525 552.16C189.293 552.587 190.157 552.8 191.117 552.8ZM196.301 556V551.968L196.461 547.424L196.141 542.88V532.256H200.109V556H196.301ZM215.902 556V552.544L215.678 551.808V545.76C215.678 544.587 215.326 543.68 214.622 543.04C213.918 542.379 212.851 542.048 211.422 542.048C210.462 542.048 209.513 542.197 208.574 542.496C207.657 542.795 206.878 543.211 206.238 543.744L204.67 540.832C205.587 540.128 206.675 539.605 207.934 539.264C209.214 538.901 210.537 538.72 211.902 538.72C214.377 538.72 216.286 539.317 217.63 540.512C218.995 541.685 219.678 543.509 219.678 545.984V556H215.902ZM210.526 556.224C209.246 556.224 208.126 556.011 207.166 555.584C206.206 555.136 205.459 554.528 204.926 553.76C204.414 552.971 204.158 552.085 204.158 551.104C204.158 550.144 204.382 549.28 204.83 548.512C205.299 547.744 206.057 547.136 207.102 546.688C208.147 546.24 209.534 546.016 211.262 546.016H216.222V548.672H211.55C210.185 548.672 209.267 548.896 208.798 549.344C208.329 549.771 208.094 550.304 208.094 550.944C208.094 551.669 208.382 552.245 208.958 552.672C209.534 553.099 210.334 553.312 211.358 553.312C212.339 553.312 213.214 553.088 213.982 552.64C214.771 552.192 215.337 551.531 215.678 550.656L216.35 553.056C215.966 554.059 215.273 554.837 214.27 555.392C213.289 555.947 212.041 556.224 210.526 556.224ZM236.919 552.192L237.015 547.168L245.943 538.912H250.743L243.159 546.528L241.047 548.288L236.919 552.192ZM233.655 556V532.256H237.655V556H233.655ZM246.551 556L240.311 548.288L242.839 545.088L251.415 556H246.551ZM260.992 556.224C259.242 556.224 257.685 555.851 256.32 555.104C254.954 554.336 253.877 553.291 253.088 551.968C252.298 550.645 251.904 549.141 251.904 547.456C251.904 545.749 252.298 544.245 253.088 542.944C253.877 541.621 254.954 540.587 256.32 539.84C257.685 539.093 259.242 538.72 260.992 538.72C262.762 538.72 264.33 539.093 265.696 539.84C267.082 540.587 268.16 541.611 268.928 542.912C269.717 544.213 270.112 545.728 270.112 547.456C270.112 549.141 269.717 550.645 268.928 551.968C268.16 553.291 267.082 554.336 265.696 555.104C264.33 555.851 262.762 556.224 260.992 556.224ZM260.992 552.8C261.973 552.8 262.848 552.587 263.616 552.16C264.384 551.733 264.981 551.115 265.408 550.304C265.856 549.493 266.08 548.544 266.08 547.456C266.08 546.347 265.856 545.397 265.408 544.608C264.981 543.797 264.384 543.179 263.616 542.752C262.848 542.325 261.984 542.112 261.024 542.112C260.042 542.112 259.168 542.325 258.4 542.752C257.653 543.179 257.056 543.797 256.608 544.608C256.16 545.397 255.936 546.347 255.936 547.456C255.936 548.544 256.16 549.493 256.608 550.304C257.056 551.115 257.653 551.733 258.4 552.16C259.168 552.587 260.032 552.8 260.992 552.8ZM283.633 538.72C284.998 538.72 286.214 538.987 287.281 539.52C288.369 540.053 289.222 540.875 289.841 541.984C290.459 543.072 290.769 544.48 290.769 546.208V556H286.769V546.72C286.769 545.205 286.406 544.075 285.681 543.328C284.977 542.581 283.985 542.208 282.705 542.208C281.766 542.208 280.934 542.4 280.209 542.784C279.483 543.168 278.918 543.744 278.513 544.512C278.129 545.259 277.937 546.208 277.937 547.36V556H273.937V538.912H277.745V543.52L277.073 542.112C277.67 541.024 278.534 540.192 279.665 539.616C280.817 539.019 282.139 538.72 283.633 538.72ZM301.123 556.224C299.693 556.224 298.317 556.043 296.995 555.68C295.693 555.296 294.659 554.837 293.891 554.304L295.427 551.264C296.195 551.755 297.112 552.16 298.179 552.48C299.245 552.8 300.312 552.96 301.379 552.96C302.637 552.96 303.544 552.789 304.099 552.448C304.675 552.107 304.963 551.648 304.963 551.072C304.963 550.603 304.771 550.251 304.387 550.016C304.003 549.76 303.501 549.568 302.883 549.44C302.264 549.312 301.571 549.195 300.803 549.088C300.056 548.981 299.299 548.843 298.531 548.672C297.784 548.48 297.101 548.213 296.483 547.872C295.864 547.509 295.363 547.029 294.979 546.432C294.595 545.835 294.403 545.045 294.403 544.064C294.403 542.976 294.712 542.037 295.331 541.248C295.949 540.437 296.813 539.819 297.923 539.392C299.053 538.944 300.387 538.72 301.923 538.72C303.075 538.72 304.237 538.848 305.411 539.104C306.584 539.36 307.555 539.723 308.323 540.192L306.787 543.232C305.976 542.741 305.155 542.411 304.323 542.24C303.512 542.048 302.701 541.952 301.891 541.952C300.675 541.952 299.768 542.133 299.171 542.496C298.595 542.859 298.307 543.317 298.307 543.872C298.307 544.384 298.499 544.768 298.883 545.024C299.267 545.28 299.768 545.483 300.387 545.632C301.005 545.781 301.688 545.909 302.435 546.016C303.203 546.101 303.96 546.24 304.707 546.432C305.453 546.624 306.136 546.891 306.755 547.232C307.395 547.552 307.907 548.011 308.291 548.608C308.675 549.205 308.867 549.984 308.867 550.944C308.867 552.011 308.547 552.939 307.907 553.728C307.288 554.517 306.403 555.136 305.251 555.584C304.099 556.011 302.723 556.224 301.123 556.224ZM319.544 556.224C318.093 556.224 316.813 555.957 315.704 555.424C314.594 554.869 313.73 554.037 313.112 552.928C312.493 551.797 312.184 550.379 312.184 548.672V538.912H316.184V548.128C316.184 549.664 316.525 550.816 317.208 551.584C317.912 552.331 318.904 552.704 320.184 552.704C321.122 552.704 321.933 552.512 322.616 552.128C323.32 551.744 323.864 551.168 324.248 550.4C324.653 549.632 324.856 548.683 324.856 547.552V538.912H328.856V556H325.048V551.392L325.72 552.8C325.144 553.909 324.301 554.763 323.192 555.36C322.082 555.936 320.866 556.224 319.544 556.224ZM334.093 556V532.256H338.093V556H334.093ZM350.619 556.224C348.741 556.224 347.291 555.744 346.266 554.784C345.243 553.803 344.731 552.363 344.731 550.464V535.136H348.731V550.368C348.731 551.179 348.933 551.808 349.339 552.256C349.765 552.704 350.352 552.928 351.099 552.928C351.995 552.928 352.741 552.693 353.339 552.224L354.459 555.072C353.989 555.456 353.413 555.744 352.731 555.936C352.048 556.128 351.344 556.224 350.619 556.224ZM341.915 542.24V539.04H353.307V542.24H341.915ZM368.277 556V552.544L368.053 551.808V545.76C368.053 544.587 367.701 543.68 366.997 543.04C366.293 542.379 365.226 542.048 363.797 542.048C362.837 542.048 361.888 542.197 360.949 542.496C360.032 542.795 359.253 543.211 358.613 543.744L357.045 540.832C357.962 540.128 359.05 539.605 360.309 539.264C361.589 538.901 362.912 538.72 364.277 538.72C366.752 538.72 368.661 539.317 370.005 540.512C371.37 541.685 372.053 543.509 372.053 545.984V556H368.277ZM362.901 556.224C361.621 556.224 360.501 556.011 359.541 555.584C358.581 555.136 357.834 554.528 357.301 553.76C356.789 552.971 356.533 552.085 356.533 551.104C356.533 550.144 356.757 549.28 357.205 548.512C357.674 547.744 358.432 547.136 359.477 546.688C360.522 546.24 361.909 546.016 363.637 546.016H368.597V548.672H363.925C362.56 548.672 361.642 548.896 361.173 549.344C360.704 549.771 360.469 550.304 360.469 550.944C360.469 551.669 360.757 552.245 361.333 552.672C361.909 553.099 362.709 553.312 363.733 553.312C364.714 553.312 365.589 553.088 366.357 552.64C367.146 552.192 367.712 551.531 368.053 550.656L368.725 553.056C368.341 554.059 367.648 554.837 366.645 555.392C365.664 555.947 364.416 556.224 362.901 556.224ZM382.467 556.224C381.037 556.224 379.661 556.043 378.339 555.68C377.037 555.296 376.003 554.837 375.235 554.304L376.771 551.264C377.539 551.755 378.456 552.16 379.523 552.48C380.589 552.8 381.656 552.96 382.723 552.96C383.981 552.96 384.888 552.789 385.443 552.448C386.019 552.107 386.307 551.648 386.307 551.072C386.307 550.603 386.115 550.251 385.731 550.016C385.347 549.76 384.845 549.568 384.227 549.44C383.608 549.312 382.915 549.195 382.147 549.088C381.4 548.981 380.643 548.843 379.875 548.672C379.128 548.48 378.445 548.213 377.827 547.872C377.208 547.509 376.707 547.029 376.323 546.432C375.939 545.835 375.747 545.045 375.747 544.064C375.747 542.976 376.056 542.037 376.674 541.248C377.293 540.437 378.157 539.819 379.266 539.392C380.397 538.944 381.731 538.72 383.267 538.72C384.419 538.72 385.581 538.848 386.755 539.104C387.928 539.36 388.899 539.723 389.667 540.192L388.131 543.232C387.32 542.741 386.499 542.411 385.667 542.24C384.856 542.048 384.045 541.952 383.235 541.952C382.019 541.952 381.112 542.133 380.515 542.496C379.939 542.859 379.651 543.317 379.651 543.872C379.651 544.384 379.843 544.768 380.227 545.024C380.611 545.28 381.112 545.483 381.731 545.632C382.349 545.781 383.032 545.909 383.779 546.016C384.547 546.101 385.304 546.24 386.051 546.432C386.797 546.624 387.48 546.891 388.099 547.232C388.739 547.552 389.251 548.011 389.635 548.608C390.019 549.205 390.211 549.984 390.211 550.944C390.211 552.011 389.891 552.939 389.251 553.728C388.632 554.517 387.747 555.136 386.595 555.584C385.443 556.011 384.067 556.224 382.467 556.224ZM393.655 556V538.912H397.655V556H393.655ZM395.671 536.096C394.925 536.096 394.306 535.861 393.815 535.392C393.346 534.923 393.111 534.357 393.111 533.696C393.111 533.013 393.346 532.448 393.815 532C394.306 531.531 394.925 531.296 395.671 531.296C396.418 531.296 397.026 531.52 397.495 531.968C397.986 532.395 398.231 532.939 398.231 533.6C398.231 534.304 397.997 534.901 397.527 535.392C397.058 535.861 396.439 536.096 395.671 536.096ZM404.185 556.224C403.46 556.224 402.841 555.979 402.329 555.488C401.817 554.976 401.561 554.336 401.561 553.568C401.561 552.757 401.817 552.117 402.329 551.648C402.841 551.157 403.46 550.912 404.185 550.912C404.911 550.912 405.529 551.157 406.041 551.648C406.553 552.117 406.809 552.757 406.809 553.568C406.809 554.336 406.553 554.976 406.041 555.488C405.529 555.979 404.911 556.224 404.185 556.224Z" fill="black"/>
</svg>
